PathFileType  4	(X/Y/Z) C:\Users\antoi\Documents\MyRepositories\mobilecap\ResultsAnalysis
DataRate	CameraRate	NumFrames	NumMarkers	Units	OrigDataRate	OrigDataStartFrame	OrigNumFrames
100.0	100.0	7	51	mm	100.0	525	1399
Frame#	Time	r_knee			r_shank_antsup			r_ankle			r_calc			r_5meta			r_toe			L_knee			L_shank_antsup			L_ankle			L_calc			L_5meta			L_toe			r_sh2			r_sh3			r_sh4			L_sh2			L_sh3			r_thigh1			r_thigh2			r_thigh3			r_thigh4			r_thigh5			L_thigh1			L_thigh2			L_thigh3			L_thigh4			r.ASIS			r.PSIS			L.ASIS			L.PSIS			C7			R_Shoulder			L_Shoulder			R_Sternum			L_Sternum			R_humerus			R_elbow_med			R_elbow_lat			R_forearm			R_wrist_radius			R_wrist_ulna			L_humerus			L_elbow_med			L_elbow_lat			L_forearm			L_wrist_radius			L_wrist_ulna			R_HJC			L_HJC			R_HJC_reg			L_HJC_reg			
		X1	Y1	Z1	X2	Y2	Z2	X3	Y3	Z3	X4	Y4	Z4	X5	Y5	Z5	X6	Y6	Z6	X7	Y7	Z7	X8	Y8	Z8	X9	Y9	Z9	X10	Y10	Z10	X11	Y11	Z11	X12	Y12	Z12	X13	Y13	Z13	X14	Y14	Z14	X15	Y15	Z15	X16	Y16	Z16	X17	Y17	Z17	X18	Y18	Z18	X19	Y19	Z19	X20	Y20	Z20	X21	Y21	Z21	X22	Y22	Z22	X23	Y23	Z23	X24	Y24	Z24	X25	Y25	Z25	X26	Y26	Z26	X27	Y27	Z27	X28	Y28	Z28	X29	Y29	Z29	X30	Y30	Z30	X31	Y31	Z31	X32	Y32	Z32	X33	Y33	Z33	X34	Y34	Z34	X35	Y35	Z35	X36	Y36	Z36	X37	Y37	Z37	X38	Y38	Z38	X39	Y39	Z39	X40	Y40	Z40	X41	Y41	Z41	X42	Y42	Z42	X43	Y43	Z43	X44	Y44	Z44	X45	Y45	Z45	X46	Y46	Z46	X47	Y47	Z47	X48	Y48	Z48	X49	Y49	Z49	X50	Y50	Z50	X51	Y51	Z51	

525	5.24000000	-283.98707	491.21598	-407.32034	-217.54398	410.98955	-411.07415	-298.37939	90.93695	-414.09982	-359.83651	56.84255	-459.00430	-172.54634	46.17217	-385.86197	-145.66619	84.02283	-438.39555	-297.96704	491.43995	-807.31937	-223.03115	422.17977	-797.24626	-292.40414	96.49604	-801.97267	-359.31663	48.67796	-752.36234	-184.52312	46.73532	-837.89827	-138.90959	81.64090	-790.92010	-227.76500	297.24589	-411.29258	-283.16092	413.62345	-372.25861	-298.91355	300.58663	-368.38948	-304.09351	437.28823	-836.65255	-310.19553	315.83560	-846.60879	-548.17559	562.48428	-417.09209	-440.27752	563.79815	-423.60645	-414.31915	513.68511	-381.08614	-548.11778	452.85673	-383.82720	-431.34576	458.60189	-393.66958	-531.92079	573.19192	-784.59424	-392.66513	580.03810	-776.54471	-530.10946	476.47461	-834.43052	-396.49104	478.05914	-816.64613	-556.82631	586.17294	-485.44676	-764.65409	606.77742	-559.28464	-577.40555	589.01476	-739.20695	-767.85086	607.71626	-652.33239	-603.96568	1046.38136	-594.41237	-528.04715	1020.07305	-440.75781	-532.15107	1009.20062	-746.49654	-489.32096	953.52155	-571.92489	-491.19807	955.00696	-618.89133	-497.20291	892.90458	-377.13360	-567.61436	687.47597	-401.83607	-557.53694	699.66733	-329.94219	-468.27417	732.24458	-340.70187	-336.77939	786.30252	-419.54004	-325.62466	742.42378	-399.39138	-521.85875	876.55103	-817.47493	-591.07846	683.60502	-784.81164	-574.99613	700.79553	-869.39910	-504.51982	731.96742	-866.01890	-364.07420	790.94400	-798.35240	-355.35867	746.32256	-821.63476	-635.57881	494.32385	-509.68720	-644.76939	497.02297	-699.00744	-630.03277	505.35716	-519.61824	-635.80388	507.05884	-687.55443	
526	5.25000000	-286.02751	491.61901	-407.83108	-219.00778	411.69435	-411.56368	-298.29528	91.04235	-413.96562	-359.85743	57.01664	-458.83004	-172.44736	45.98838	-385.63756	-145.56959	83.79842	-438.25961	-300.33914	491.66064	-807.39778	-225.00883	422.93885	-797.74776	-292.55533	96.43635	-801.96910	-359.32828	48.81872	-752.60955	-184.46752	46.80374	-838.97446	-138.85167	81.31468	-791.45774	-228.65987	297.82889	-411.60759	-284.51540	414.11870	-372.36691	-299.03569	301.14383	-368.48026	-306.18739	437.71706	-837.07799	-311.65036	316.05371	-846.44964	-550.31327	563.16563	-418.26989	-442.29087	564.45187	-424.61976	-416.37712	515.00465	-381.00394	-550.01923	453.68543	-384.36380	-433.41358	459.57718	-393.88808	-534.68322	573.06780	-784.67954	-395.50963	580.16814	-777.30236	-532.82001	476.13387	-833.98149	-399.11408	478.20395	-817.03376	-561.81320	588.68053	-486.58022	-770.35462	605.69966	-560.10638	-582.46933	590.73671	-739.09915	-773.00153	606.04294	-652.32867	-615.55366	1048.26154	-594.58416	-539.77452	1022.20692	-440.85943	-542.75954	1010.93003	-746.49122	-500.76777	955.75752	-572.03794	-502.63190	957.13002	-618.70011	-509.49521	895.46556	-376.42067	-578.89562	689.98632	-402.81147	-568.94328	701.82763	-330.34342	-479.70327	734.44827	-341.30601	-347.72938	787.86311	-419.81377	-336.87589	743.99165	-399.74312	-533.90443	878.58481	-818.27704	-603.61854	686.89601	-783.20418	-587.35641	702.34554	-868.20794	-516.63775	733.01441	-864.73805	-375.34947	791.33240	-797.66072	-367.10872	746.31162	-820.28279	-638.96933	495.46968	-509.94007	-648.24566	497.60917	-699.26291	-634.32853	507.43598	-520.40771	-639.11324	508.04530	-687.55617	
527	5.26000000	-287.91663	491.91842	-408.39794	-220.53550	412.37180	-412.11511	-298.16377	91.20621	-413.80785	-359.86609	57.20438	-458.68302	-172.18475	45.47132	-385.90361	-145.38032	83.30671	-438.43891	-302.54761	491.93182	-807.96616	-226.83290	423.59413	-798.44888	-292.38488	96.33088	-802.09634	-359.22330	49.02919	-752.76250	-184.20908	46.41503	-839.68349	-138.60452	80.53115	-791.81567	-229.58012	298.45216	-411.87350	-285.79402	414.59171	-372.59275	-299.61258	301.34878	-368.58033	-308.13095	437.94043	-837.65999	-312.93172	316.11748	-846.78994	-552.79819	563.67762	-419.24716	-444.56140	564.75574	-425.14883	-418.51935	515.83877	-381.54454	-551.98710	454.27880	-385.02360	-435.54046	460.40652	-394.19313	-537.40127	572.94630	-784.40164	-398.26163	580.31507	-777.72471	-535.51955	475.80752	-833.45133	-401.68542	478.32175	-817.50759	-567.17181	591.48473	-487.52030	-775.49423	604.57000	-560.84811	-587.41237	592.59212	-738.68181	-777.70591	604.06521	-651.50016	-627.24529	1049.99867	-594.67470	-551.29625	1024.20280	-440.94603	-553.36353	1012.46029	-746.34774	-511.87024	957.73491	-572.18685	-513.89477	958.97269	-618.66573	-521.32821	897.84775	-376.01618	-590.22712	692.36778	-403.49816	-580.38485	703.93310	-330.98649	-491.22325	736.54078	-341.61947	-358.65187	789.42498	-420.15472	-348.04461	745.51886	-400.09710	-545.59514	880.69395	-818.85770	-616.12136	690.37698	-781.72922	-599.60951	704.02069	-867.05982	-528.64088	734.08195	-863.55651	-386.52049	791.68541	-797.05884	-378.76771	746.26275	-818.84934	-642.01470	496.79255	-509.77158	-651.35688	498.22628	-699.09780	-638.44098	510.01917	-520.66740	-642.48878	509.08252	-686.91498	
528	5.27000000	-289.57101	492.38302	-408.97411	-221.97066	413.03812	-412.68431	-297.93026	91.36221	-413.60010	-359.83230	57.44171	-458.50171	-171.76504	44.73696	-386.50409	-145.07882	82.62434	-438.85208	-304.55015	492.11743	-808.72245	-228.45404	424.03430	-799.08786	-291.92459	96.19789	-802.38219	-358.99214	49.25617	-752.77383	-183.86523	45.47817	-839.71829	-138.18352	79.40760	-791.87429	-230.35651	299.06415	-412.22939	-286.99752	414.90955	-373.08647	-300.44499	301.57169	-368.70836	-309.92904	437.79559	-838.05855	-314.04006	316.07294	-847.42585	-555.01076	563.86456	-420.27655	-447.04034	564.92165	-425.31130	-420.71319	516.47892	-382.18166	-554.01576	454.68253	-385.61737	-437.58342	461.05835	-394.51417	-539.94713	572.74637	-783.93446	-400.45064	580.24902	-777.83085	-538.07044	475.67655	-833.25191	-404.09923	478.38276	-817.94967	-572.52858	594.28159	-488.32650	-780.46638	603.09678	-560.99043	-592.22705	594.43234	-738.09308	-782.61251	602.26818	-650.60685	-638.94047	1051.36549	-594.98395	-562.67203	1025.99456	-441.14394	-564.04091	1013.94977	-746.20246	-522.89693	959.62662	-572.18836	-525.05801	960.20131	-618.55103	-532.62732	899.91308	-375.97275	-601.31954	694.43298	-404.15168	-591.67680	705.68659	-331.72661	-502.54528	738.28140	-341.85043	-369.52761	790.87759	-420.58337	-358.96993	746.90176	-400.46022	-556.51567	882.68653	-819.36696	-628.15024	693.10411	-780.23535	-611.64502	705.57565	-865.91849	-540.35929	735.06207	-862.73344	-397.55470	791.94092	-796.43914	-390.29112	746.34379	-817.91327	-644.96684	498.06270	-509.44030	-654.45191	498.89438	-698.76356	-641.87302	511.88773	-521.01779	-645.83334	510.36378	-686.32020	
529	5.28000000	-291.28947	492.97147	-409.51346	-223.34588	413.62528	-413.31554	-297.58674	91.52627	-413.43359	-359.77552	57.77312	-458.19674	-171.40926	44.31640	-387.02120	-144.73919	81.96702	-439.32461	-306.41858	491.97188	-809.24178	-229.91602	424.24194	-799.51556	-291.40373	95.98858	-802.54223	-358.69095	49.46489	-752.75239	-183.60695	44.52419	-839.53160	-137.71920	78.39099	-791.84849	-230.97898	299.60756	-412.74085	-288.27879	415.15589	-373.56318	-301.03853	301.83827	-368.94477	-311.56085	437.33718	-838.30903	-314.91456	315.84664	-847.85918	-557.03489	563.89200	-421.19115	-449.39048	565.20267	-425.61789	-422.90190	517.11097	-382.58613	-556.03314	454.92530	-386.10192	-439.50533	461.54181	-394.81505	-542.24290	572.45482	-783.42212	-402.20916	579.95754	-777.86434	-540.34976	475.79473	-833.46928	-406.28546	478.56357	-818.55636	-577.69510	596.77257	-489.08727	-785.57804	601.04110	-560.40215	-596.90368	596.21114	-737.48831	-787.78579	600.80130	-649.90049	-650.50941	1052.32304	-595.32688	-573.90853	1027.58287	-441.27569	-574.78148	1015.50192	-746.14286	-533.95296	961.49627	-572.07482	-536.36679	961.48926	-618.02959	-543.43644	901.52016	-376.16128	-612.14750	696.25966	-404.96828	-602.67789	707.12605	-332.25580	-513.50295	739.57013	-342.07045	-380.22865	792.19233	-420.97254	-369.66259	748.18498	-400.80157	-566.71931	884.26796	-819.74111	-639.73779	695.24842	-778.79577	-623.44677	706.88992	-864.82401	-551.70630	735.74273	-862.06074	-408.38998	792.10997	-795.80368	-401.55907	746.39990	-817.20441	-647.90347	499.02584	-509.17634	-657.65598	499.61220	-698.48704	-644.71936	512.37539	-522.10454	-648.77696	511.93287	-686.48496	
530	5.29000000	-293.18609	493.41590	-410.05119	-224.75687	414.10802	-414.01418	-297.23442	91.72521	-413.42540	-359.73379	58.15247	-457.82968	-171.25879	44.31716	-387.36115	-144.47121	81.50087	-439.79863	-308.17490	491.70506	-809.65547	-231.33950	424.36585	-799.88029	-291.10006	95.80033	-802.51063	-358.42603	49.62597	-752.80442	-183.49818	44.05467	-839.54328	-137.43088	77.84269	-791.90759	-231.64978	300.13486	-413.25957	-289.66648	415.38725	-373.96619	-301.52072	302.02672	-369.31428	-313.08964	436.79286	-838.63296	-315.63724	315.43278	-848.09518	-559.29297	563.98766	-421.75885	-451.52833	565.60091	-426.22452	-424.98123	517.66423	-382.98636	-557.97353	454.94733	-386.50997	-441.29862	461.90783	-395.08205	-544.23257	572.23427	-783.09860	-404.23168	579.94965	-777.97412	-542.32372	475.95108	-833.72679	-408.25359	478.93939	-819.37835	-582.82856	598.85108	-489.69826	-790.45918	598.60834	-559.58369	-601.50353	598.00599	-737.01710	-792.79390	599.22828	-649.25265	-661.83384	1052.93530	-595.36583	-584.98210	1028.96877	-441.14531	-585.66349	1016.93824	-746.20781	-544.74053	963.24081	-572.07888	-547.48611	964.29377	-617.41576	-553.85365	902.67712	-376.44066	-622.79771	697.77560	-405.67766	-613.39165	708.36302	-332.48560	-524.17284	740.47758	-342.19976	-390.62266	793.38498	-421.18153	-380.14066	749.36579	-401.07608	-576.77736	885.25145	-819.69595	-651.10710	697.33365	-777.54598	-634.96796	707.89958	-863.78377	-562.76102	735.99833	-861.29348	-419.01524	792.19802	-795.30514	-412.52816	746.25969	-816.24920	-650.69753	499.63624	-509.05361	-660.74262	500.31344	-698.34845	-647.34183	512.29397	-523.33585	-651.60306	513.42498	-686.97187	
531	5.30000000	-295.08392	493.60988	-410.66100	-226.22049	414.60746	-414.72500	-296.99394	91.93124	-413.55022	-359.71264	58.47453	-457.61709	-171.22570	44.36345	-387.67490	-144.29152	81.24170	-440.25757	-309.79708	491.59942	-810.13235	-232.78237	424.50685	-800.29567	-291.06876	95.77344	-802.53949	-358.30841	49.69611	-752.89314	-183.47869	44.01051	-839.66074	-137.36622	77.71852	-791.97355	-232.46048	300.68352	-413.73697	-291.04895	415.53382	-374.57133	-302.26541	302.20392	-369.84706	-314.56895	436.41746	-839.18064	-316.36371	315.02358	-848.47538	-561.74740	564.03123	-422.19492	-453.63942	565.91516	-426.92378	-426.90786	518.13950	-383.49978	-559.66878	454.71050	-387.00207	-442.98264	462.21557	-395.35688	-545.87451	572.09966	-783.05795	-406.41821	580.29078	-778.03802	-544.01450	476.07807	-833.99128	-409.98408	479.33714	-820.03809	-587.90454	600.51075	-490.15555	-794.80814	596.12385	-558.92154	-606.14807	599.66954	-736.77208	-797.51921	597.18580	-648.86627	-672.87922	1053.15020	-595.22263	-595.80091	1030.05975	-440.83226	-596.66369	1018.02847	-746.35500	-555.02965	964.78874	-572.26880	-557.63634	968.08687	-617.28232	-563.97638	903.50381	-376.72350	-633.01191	698.73832	-406.23190	-623.78668	709.25096	-332.76097	-534.52149	741.09699	-342.30852	-400.66459	794.39154	-421.18922	-390.25138	750.34714	-401.14145	-586.98574	885.78558	-819.38892	-662.28526	699.34145	-776.47424	-646.09205	708.51975	-862.87674	-573.59337	735.86399	-860.54480	-429.45511	792.17890	-794.95860	-423.26320	745.94259	-815.20499	-653.32431	499.97002	-509.09331	-663.63769	500.81448	-698.37313	-649.89744	512.49258	-523.95281	-654.81229	514.42217	-687.08095	
